<svg xmlns="http://www.w3.org/2000/svg" xmlns:xlink="http://www.w3.org/1999/xlink" width="500" zoomAndPan="magnify" viewBox="0 0 375 374.999991" height="500" preserveAspectRatio="xMidYMid meet" version="1.0"><defs><clipPath id="72c9ceb617"><path d="M 28.410156 0 L 356.910156 0 L 356.910156 375 L 28.410156 375 Z M 28.410156 0 " clip-rule="nonzero"/></clipPath></defs><g clip-path="url(#72c9ceb617)"><path fill="#1e3f48" d="M 354.898438 265.363281 C 354.09375 251.089844 353.609375 236.796875 352.605469 222.535156 C 351.351562 204.738281 349.339844 187.003906 349.65625 169.109375 C 349.800781 161.179688 349.636719 153.1875 347.632812 145.414062 C 346.394531 140.609375 344.003906 139.425781 339.210938 141.019531 C 337.289062 141.660156 335.460938 142.808594 333.503906 143.066406 C 324.898438 144.191406 316.285156 145.367188 307.566406 145.207031 C 303.496094 145.132812 303.652344 145.1875 303.792969 141.136719 C 304.496094 120.511719 305.1875 99.886719 305.714844 79.261719 C 305.875 72.949219 302.855469 70.675781 296.933594 72.917969 C 290.105469 75.5 283.167969 74.726562 276.25 74.492188 C 272.335938 74.363281 268.394531 73.621094 264.707031 72.007812 C 262.777344 71.167969 261.734375 70.414062 264.074219 68.675781 C 265.414062 67.679688 266.109375 66.152344 265.3125 64.386719 C 264.519531 62.640625 263.042969 62.339844 261.296875 62.398438 C 259.589844 62.460938 257.882812 62.398438 256.246094 63.070312 C 255.195312 54.042969 255.578125 45.15625 255.992188 36.265625 C 256.332031 28.976562 257.597656 21.746094 257.242188 14.414062 C 257.027344 9.988281 252.628906 6.226562 249.097656 7.921875 C 246.226562 9.300781 243.199219 9.8125 240.203125 10.425781 C 235.03125 11.488281 230.210938 10.03125 225.738281 7.40625 C 224.984375 6.960938 223.910156 6.414062 225 5.195312 C 226.761719 3.226562 225.347656 2.042969 223.789062 1.140625 C 221.820312 -0.00390625 219.65625 0.0859375 217.589844 0.90625 C 213.316406 2.597656 208.824219 3.945312 204.863281 6.207031 C 190.890625 14.1875 175.925781 20.117188 161.679688 27.511719 C 157.410156 29.726562 153.109375 31.902344 148.589844 33.597656 C 135.496094 38.511719 123.753906 46.160156 111.21875 52.214844 C 108.488281 53.535156 105.089844 55.308594 104.585938 58.425781 C 103.921875 62.539062 101.253906 63.761719 98.214844 65.140625 C 78.425781 74.097656 58.65625 83.105469 38.84375 92.011719 C 36.507812 93.0625 34.902344 94.667969 34.039062 96.917969 C 31.007812 104.839844 30.167969 113.121094 30.207031 121.535156 C 30.234375 127.453125 30.304688 133.371094 30.195312 139.28125 C 29.976562 151.109375 29.457031 162.933594 29.410156 174.757812 C 29.351562 188.503906 30.128906 202.265625 29.722656 215.996094 C 29.011719 239.984375 29.769531 263.984375 28.769531 287.964844 C 28.609375 291.800781 29.683594 295.683594 29.554688 299.519531 C 29.105469 313.0625 29.21875 326.597656 29.140625 340.140625 C 29.09375 347.984375 35.605469 352.953125 40.628906 354.253906 C 43.328125 354.953125 45.949219 355.785156 48.542969 356.773438 C 61.996094 361.902344 75.109375 361.199219 88.050781 354.832031 C 95.863281 350.988281 103.160156 346.25 110.847656 342.199219 C 112.316406 341.421875 113.328125 340.835938 113.332031 343.351562 C 113.335938 345.8125 113.945312 348.285156 113.816406 350.726562 C 113.648438 353.855469 115.039062 355.804688 117.546875 357.289062 C 122.617188 360.285156 128.183594 361.824219 133.921875 362.71875 C 138.222656 363.390625 142.199219 362.394531 145.691406 359.597656 C 148.707031 357.1875 151.851562 354.941406 155.105469 352.5 C 155.96875 357.105469 159.601562 358.582031 163.3125 359.851562 C 165.941406 360.75 168.660156 361.378906 171.339844 362.132812 C 177.898438 363.980469 184.742188 363.546875 191.410156 364.660156 C 198.890625 365.90625 205.90625 364.855469 211.425781 358.757812 C 213.058594 356.953125 215.3125 355.730469 217.183594 354.125 C 218.863281 352.683594 219.566406 353.222656 219.746094 355.175781 C 220.203125 360.148438 223.28125 362.785156 227.554688 364.875 C 237.492188 369.734375 248.347656 371.398438 258.835938 374.320312 C 261.285156 375.003906 263.859375 374.425781 266.078125 373.398438 C 269.664062 371.734375 273.078125 369.691406 276.535156 367.753906 C 289.273438 360.605469 299.882812 350.550781 311.261719 341.613281 C 323.839844 331.738281 336.660156 322.101562 348.574219 311.386719 C 353.433594 307.019531 356.726562 301.929688 356.707031 294.96875 C 356.679688 285.054688 355.457031 275.234375 354.898438 265.363281 Z M 53.773438 200.078125 C 53.675781 200.09375 53.582031 200.105469 53.488281 200.117188 C 53.582031 200.105469 53.675781 200.09375 53.773438 200.078125 Z M 53.773438 200.078125 " fill-opacity="1" fill-rule="nonzero"/></g><path fill="#e28b7a" d="M 248.8125 214.921875 C 248.632812 235.894531 250.105469 256.78125 251.816406 277.671875 C 252.675781 288.15625 253.1875 298.671875 254.632812 309.09375 C 256.835938 325.019531 258.703125 340.996094 261.484375 356.839844 C 262.1875 360.847656 262.453125 364.933594 262.898438 368.984375 C 263.117188 370.984375 262.445312 372.320312 260.203125 371.648438 C 249.667969 368.492188 238.648438 366.933594 228.671875 361.917969 C 225.46875 360.304688 223.667969 358.140625 222.894531 354.480469 C 220.042969 341.03125 218.644531 327.375 216.59375 313.8125 C 214.847656 302.257812 213.125 290.699219 211.667969 279.105469 C 210.347656 268.566406 209.132812 258.003906 208.347656 247.414062 C 207.039062 229.75 205.0625 212.117188 205.503906 194.34375 C 205.585938 191.050781 206.527344 188.730469 209.136719 186.636719 C 215.953125 181.167969 223.25 176.5 231.261719 173.058594 C 236.804688 170.679688 241.808594 167.335938 247.1875 164.699219 C 262.558594 157.160156 278.035156 149.832031 293.464844 142.402344 C 294.261719 142.023438 295.15625 141.445312 295.78125 142.289062 C 296.589844 143.394531 295.441406 144.042969 294.75 144.613281 C 293.515625 145.640625 292.253906 146.667969 290.875 147.480469 C 284.496094 151.230469 278.273438 155.316406 271.628906 158.515625 C 261.015625 163.621094 250.699219 169.34375 239.816406 173.894531 C 232.285156 177.042969 225.515625 181.683594 218.171875 185.214844 C 217.316406 185.625 216.542969 186.273438 215.84375 186.929688 C 213.945312 188.71875 214.21875 190.363281 216.683594 191.300781 C 218.0625 191.828125 219.597656 192.234375 221.054688 192.210938 C 229.652344 192.089844 238.246094 193.019531 246.835938 192.335938 C 248.832031 192.175781 248.835938 193.164062 248.828125 194.585938 C 248.796875 201.363281 248.8125 208.144531 248.8125 214.921875 Z M 243.503906 348.429688 C 247.097656 348.574219 247.859375 347.609375 247.335938 344.296875 C 246.46875 338.800781 245.660156 333.292969 245.027344 327.769531 C 243.40625 313.617188 240.863281 299.574219 240.226562 285.300781 C 239.5 268.996094 237.074219 252.792969 237.152344 236.429688 C 237.175781 231.378906 236.820312 226.324219 236.539062 221.277344 C 236.289062 216.722656 235.648438 216.132812 231.078125 216.171875 C 226.5625 216.210938 222.015625 216.410156 217.632812 215.175781 C 215.136719 214.472656 214.566406 215.320312 214.574219 217.585938 C 214.613281 226.402344 215.445312 235.191406 216.136719 243.949219 C 217.605469 262.621094 221.335938 281.03125 223.1875 299.6875 C 224.636719 314.253906 227.324219 328.695312 229.460938 343.191406 C 229.730469 345.019531 230.4375 346.136719 232.503906 346.742188 C 236.164062 347.808594 239.929688 347.761719 243.503906 348.429688 Z M 230.152344 209.328125 C 231.328125 209.328125 232.527344 209.464844 233.679688 209.292969 C 234.925781 209.109375 236.960938 209.6875 236.941406 207.648438 C 236.917969 205.757812 235.082031 205.914062 233.699219 205.949219 C 228.734375 206.082031 223.890625 205.433594 219.128906 203.988281 C 217.40625 203.464844 215.585938 203.199219 213.789062 203.011719 C 213.121094 202.941406 212.253906 203.242188 212.089844 204.191406 C 211.933594 205.109375 212.390625 205.625 213.265625 205.761719 C 218.941406 206.664062 224.210938 209.59375 230.152344 209.328125 Z M 249.703125 359.136719 C 251.109375 358.628906 253.257812 359.730469 253.308594 357.347656 C 253.355469 355.304688 251.457031 355.863281 250.15625 355.621094 C 243.996094 354.46875 237.742188 353.761719 231.71875 351.917969 C 230.660156 351.597656 229.09375 350.867188 228.535156 352.160156 C 227.882812 353.660156 229.679688 353.976562 230.632812 354.390625 C 236.753906 357.046875 243.402344 357.546875 249.703125 359.136719 Z M 229.1875 170.578125 C 244.816406 162.351562 260.773438 154.792969 276.714844 147.191406 C 281.539062 144.890625 286.210938 142.285156 291.25 140.417969 C 295.179688 138.964844 297.574219 139.730469 298.574219 143.363281 C 298.867188 144.421875 299.402344 144.425781 300.144531 144.472656 C 301.136719 144.539062 301.039062 143.800781 301.097656 143.175781 C 301.289062 141.257812 301.636719 139.34375 301.640625 137.425781 C 301.699219 123.664062 301.71875 109.90625 302.390625 96.15625 C 302.679688 90.261719 303.164062 84.371094 302.933594 78.460938 C 302.800781 75.042969 302 74.4375 298.910156 75.492188 C 295.164062 76.769531 291.480469 78.183594 287.925781 79.96875 C 269.367188 89.292969 250.359375 97.667969 231.480469 106.316406 C 226.429688 108.628906 226.375 108.449219 226.820312 113.828125 C 226.945312 115.324219 226.957031 116.84375 226.859375 118.339844 C 226.027344 131.230469 226.535156 144.148438 226.066406 157.035156 C 225.890625 161.871094 226.164062 166.613281 226.359375 171.390625 C 227.5625 171.648438 228.375 171.003906 229.1875 170.578125 Z M 229.1875 170.578125 " fill-opacity="1" fill-rule="nonzero"/><path fill="#767fa5" d="M 262.863281 65.460938 C 260.753906 68.183594 258.109375 70.203125 255.058594 71.414062 C 240.363281 77.238281 226 83.824219 211.128906 89.292969 C 195.011719 95.21875 178.667969 100.863281 163.660156 109.503906 C 162.828125 109.980469 161.921875 110.425781 161.253906 111.085938 C 159.636719 112.695312 159.296875 114.183594 161.515625 115.8125 C 164.285156 117.847656 167.550781 117.988281 170.65625 118.445312 C 178.175781 119.558594 185.753906 120.289062 193.308594 121.167969 C 193.414062 121.179688 193.527344 121.15625 193.628906 121.1875 C 195.386719 121.683594 197.84375 119.839844 198.667969 121.203125 C 199.582031 122.71875 198.992188 125.15625 199.015625 127.191406 C 199.285156 149.453125 199.261719 171.722656 199.886719 193.972656 C 200.648438 221.191406 199.773438 248.414062 200.492188 275.621094 C 200.796875 287.199219 201.976562 298.75 202.75 310.316406 C 202.808594 311.171875 202.871094 312.03125 202.871094 312.890625 C 202.863281 328.050781 202.945312 343.214844 202.523438 358.378906 C 202.449219 361.023438 201.507812 361.816406 199.039062 362.039062 C 194.457031 362.457031 190.101562 361.050781 185.621094 360.730469 C 178.773438 360.238281 172.050781 359.15625 165.464844 357.0625 C 159.519531 355.167969 157.953125 353.484375 157.917969 347.304688 C 157.804688 326.863281 157.816406 306.417969 157.558594 285.976562 C 157.355469 269.851562 157.40625 253.71875 156.484375 237.609375 C 155.515625 220.75 155.722656 203.859375 155.0625 187.003906 C 154.152344 163.898438 153.53125 140.796875 153.164062 117.679688 C 153.078125 112.238281 155.039062 109.042969 159.800781 106.898438 C 173.0625 100.917969 186.351562 95.070312 199.917969 89.753906 C 216.453125 83.273438 232.664062 75.925781 249.148438 69.277344 C 252.714844 67.839844 256.339844 66.558594 259.933594 65.191406 C 260.867188 64.835938 261.757812 64.738281 262.863281 65.460938 Z M 179.128906 135.355469 C 175.375 134.839844 171.671875 135.871094 168.527344 138.714844 C 162.808594 143.875 160.902344 157.3125 164.980469 163.921875 C 165.832031 165.304688 166.984375 166.414062 168.363281 167.320312 C 177.257812 173.164062 189.488281 168.152344 191.972656 157.648438 C 192.671875 154.691406 192.933594 151.679688 192.617188 148.6875 C 191.835938 141.339844 189.253906 134.09375 179.128906 135.355469 Z M 179.734375 330.539062 C 182.90625 330.148438 186.304688 329.730469 189.699219 329.320312 C 191.109375 329.152344 192.878906 329.019531 192.570312 327.136719 C 192.230469 325.066406 190.375 325.988281 189.140625 326.164062 C 182.421875 327.128906 175.726562 327.234375 169.023438 326.003906 C 168.101562 325.835938 166.726562 324.335938 166.199219 326.4375 C 165.773438 328.121094 167.109375 328.722656 168.355469 329.097656 C 171.984375 330.191406 175.785156 329.902344 179.734375 330.539062 Z M 172.246094 338.800781 C 172.050781 338.800781 171.726562 338.78125 171.40625 338.804688 C 170.382812 338.886719 169.003906 338.597656 168.894531 340.09375 C 168.785156 341.617188 170.246094 341.558594 171.222656 341.71875 C 173.753906 342.136719 176.300781 342.445312 178.847656 342.75 C 180.949219 342.996094 183.027344 343.742188 185.1875 342.902344 C 186.015625 342.582031 186.933594 342.480469 186.789062 341.316406 C 186.671875 340.382812 185.9375 340.238281 185.132812 340.15625 C 180.878906 339.726562 176.628906 339.265625 172.246094 338.800781 Z M 203.425781 188.671875 C 204.375 186.5625 206.035156 185.175781 207.730469 183.730469 C 211.929688 180.148438 216.746094 177.539062 221.386719 174.660156 C 223.046875 173.628906 223.832031 172.511719 223.5625 170.535156 C 222.339844 161.550781 223.066406 152.511719 223.058594 143.5 C 223.046875 133.289062 223.398438 123.078125 223.648438 112.871094 C 223.710938 110.402344 223.089844 110.082031 220.777344 111.140625 C 215.140625 113.722656 209.984375 117.394531 203.960938 119.035156 C 201.375 119.738281 200.980469 120.921875 201.09375 123.296875 C 201.613281 134.019531 202.105469 144.746094 202.300781 155.480469 C 202.5 166.488281 202.34375 177.5 202.34375 188.511719 C 202.707031 188.566406 203.066406 188.617188 203.425781 188.671875 Z M 217.5625 350.015625 C 218.441406 349.359375 218.480469 348.675781 218.3125 347.796875 C 216.347656 337.46875 215.273438 327.011719 213.628906 316.640625 C 210.890625 299.371094 208.59375 282.046875 206.886719 264.648438 C 205.507812 250.605469 204.355469 236.535156 203.109375 222.597656 C 203.128906 245.679688 202.785156 268.882812 204.789062 292.074219 C 206.207031 308.464844 205.949219 324.957031 206.03125 341.40625 C 206.058594 347.070312 205.816406 352.78125 205.664062 359.164062 C 209.953125 355.847656 213.714844 352.878906 217.5625 350.015625 Z M 217.5625 350.015625 " fill-opacity="1" fill-rule="nonzero"/><path fill="#d8a772" d="M 251.394531 206.132812 C 251.394531 202.042969 251.464844 197.953125 251.355469 193.867188 C 251.316406 192.511719 251.621094 191.789062 252.914062 191.175781 C 267.644531 184.21875 281.964844 176.5 295.960938 168.148438 C 308.476562 160.679688 321.179688 153.519531 333.816406 146.253906 C 336.144531 144.917969 338.644531 143.929688 341.253906 143.300781 C 342.902344 142.902344 344.027344 143.238281 344.496094 145.292969 C 345.796875 150.984375 346.1875 156.738281 346.308594 162.539062 C 346.53125 173.402344 346.503906 184.28125 347.105469 195.121094 C 347.84375 208.515625 349.179688 221.875 350.144531 235.257812 C 351.316406 251.539062 351.378906 267.882812 353.1875 284.132812 C 353.6875 288.601562 353.808594 293.21875 353.273438 297.667969 C 352.726562 302.234375 349.898438 305.84375 346.429688 308.933594 C 334.625 319.453125 321.910156 328.863281 309.570312 338.703125 C 297.253906 348.527344 285.625 359.347656 271.808594 367.234375 C 265.867188 370.621094 266.230469 370.722656 265.542969 363.832031 C 264.699219 355.410156 263.269531 347.046875 262.117188 338.65625 C 260.113281 324.097656 257.75 309.582031 256.578125 294.921875 C 255.035156 275.65625 253.367188 256.390625 252.3125 237.097656 C 251.75 226.800781 251.1875 216.46875 251.394531 206.132812 Z M 307.558594 267.800781 C 306.109375 266.796875 304.53125 266.867188 302.960938 267.363281 C 302.355469 267.554688 301.839844 268.054688 301.816406 268.78125 C 301.804688 269.226562 302.042969 269.640625 302.546875 269.679688 C 307.152344 270.054688 303.476562 272.410156 303.382812 273.738281 C 303.316406 274.699219 302.316406 275.746094 301.042969 275.449219 C 299.90625 275.183594 299.347656 274.148438 299.222656 273.035156 C 298.890625 270.011719 300.128906 267.378906 301.640625 264.933594 C 302.039062 264.289062 303.753906 264.136719 302.804688 263.007812 C 301.855469 261.882812 300.535156 262.546875 299.820312 263.59375 C 297.921875 266.367188 296.601562 269.460938 296.804688 272.84375 C 296.949219 275.285156 298.105469 277.625 300.890625 277.894531 C 303.394531 278.136719 305.089844 276.484375 305.953125 274.210938 C 306.742188 272.132812 307.636719 270.050781 307.507812 267.738281 C 308.238281 268.992188 308.773438 270.421875 309.738281 271.453125 C 311.046875 272.851562 313.027344 273.972656 314.148438 271.527344 C 315.90625 267.695312 316.429688 263.535156 315.578125 259.324219 C 315.421875 258.542969 315.089844 257.480469 313.941406 257.769531 C 312.976562 258.011719 313.269531 258.988281 313.292969 259.695312 C 313.390625 263.269531 313.695312 266.863281 312.375 270.207031 C 311.589844 270.300781 311.367188 269.902344 311.175781 269.535156 C 310.007812 267.308594 309.933594 264.816406 309.519531 262.410156 C 309.375 261.585938 309.078125 260.824219 308.21875 260.898438 C 307.210938 260.988281 307.367188 261.914062 307.398438 262.667969 C 307.46875 264.378906 307.507812 266.089844 307.558594 267.800781 Z M 270.765625 298.648438 C 270.328125 299.179688 269.933594 299.453125 269.851562 299.800781 C 268.859375 303.980469 269.21875 308.03125 272.214844 311.253906 C 275.097656 314.355469 278.832031 316.011719 283.199219 315.46875 C 289.28125 314.710938 292.585938 310.617188 294.492188 305.296875 C 295.28125 303.101562 295.96875 302.941406 298.210938 303.40625 C 308.105469 305.46875 313.640625 303.21875 315.09375 294.496094 C 315.632812 291.25 316.726562 290.933594 319.503906 291 C 327.664062 291.1875 333.207031 285.863281 333.238281 277.949219 C 333.246094 276.464844 333.84375 276.488281 334.875 276.304688 C 340.101562 275.382812 341.988281 273.527344 342.964844 268.550781 C 343.164062 267.539062 343.210938 266.445312 342.136719 266.042969 C 341.085938 265.644531 340.726562 266.695312 340.367188 267.464844 C 340.097656 268.042969 339.804688 268.625 339.621094 269.234375 C 338.609375 272.617188 336.046875 273.707031 332.917969 273.34375 C 330.054688 273.007812 329.492188 274.046875 330.058594 276.589844 C 331.019531 280.882812 329.414062 284.140625 325.699219 286.386719 C 322.523438 288.3125 319.164062 288.1875 315.757812 287.136719 C 312.003906 285.976562 311.707031 286.214844 312.289062 290.113281 C 312.972656 294.695312 310.660156 299.902344 307.164062 300.476562 C 303.292969 301.117188 299.242188 301.53125 295.902344 298.398438 C 294.230469 296.828125 293.003906 297.273438 292.609375 299.605469 C 292.15625 302.253906 291.585938 304.851562 290.1875 307.210938 C 287.582031 311.597656 283.578125 313.449219 279.09375 312.25 C 274.050781 310.898438 271.484375 307.492188 271.410156 302.144531 C 271.394531 301.109375 271.722656 300.007812 270.765625 298.648438 Z M 263.425781 211.390625 C 263.722656 208.507812 263.691406 206.15625 264.859375 204.015625 C 267.285156 199.554688 271.890625 198.601562 275.171875 201.851562 C 276.191406 202.859375 276.347656 205.21875 278.113281 204.84375 C 280.1875 204.40625 279.21875 202.082031 279.535156 200.664062 C 281.5 191.789062 286.621094 189.386719 294.285156 193.925781 C 295.734375 194.785156 296.9375 194.933594 297.320312 192.8125 C 297.476562 191.972656 297.667969 191.132812 297.90625 190.308594 C 299.820312 183.636719 306.929688 180.8125 312.289062 184.585938 C 317.585938 188.316406 317.585938 188.316406 318.589844 181.800781 C 319.433594 176.328125 323.910156 173.035156 327.902344 175.054688 C 329.019531 175.621094 329.882812 176.675781 330.886719 177.476562 C 331.71875 178.144531 332.632812 178.441406 333.414062 177.445312 C 334.109375 176.558594 333.519531 175.898438 332.902344 175.21875 C 328.292969 170.113281 321.8125 170.589844 317.878906 176.183594 C 316.40625 178.273438 316.210938 180.75 315.292969 183.015625 C 306.277344 177.980469 299.769531 179.890625 295.425781 188.976562 C 294.6875 190.523438 294.234375 190.183594 293.109375 189.714844 C 287.71875 187.484375 282.222656 189.28125 279.109375 194.167969 C 278.070312 195.800781 277.460938 197.613281 276.878906 199.4375 C 269.730469 196.867188 267.113281 197.25 264.015625 201.289062 C 261.640625 204.378906 261.238281 208.3125 263.425781 211.390625 Z M 316.082031 215.125 C 316.160156 212.003906 315.691406 207.785156 314.101562 203.738281 C 313.496094 202.207031 312.484375 201.332031 310.726562 201.253906 C 308.742188 201.171875 308.082031 202.550781 307.65625 203.972656 C 306.546875 207.660156 305.851562 211.449219 305.648438 215.300781 C 305.453125 218.964844 305.570312 222.632812 307.832031 225.773438 C 308.894531 227.238281 310.089844 228.820312 312.265625 228.378906 C 314.25 227.972656 314.75 226.214844 315.3125 224.585938 C 316.246094 221.890625 316.097656 219.09375 316.082031 215.125 Z M 318.53125 206.042969 C 318.402344 211.085938 319.046875 216.0625 319.773438 221.03125 C 319.878906 221.757812 319.796875 222.699219 320.886719 222.605469 C 321.949219 222.515625 321.785156 221.558594 321.765625 220.851562 C 321.707031 218.820312 321.625 216.785156 321.476562 214.761719 C 321.378906 213.453125 320.449219 211.628906 321.800781 211.039062 C 323.453125 210.3125 324.695312 211.898438 325.628906 213.265625 C 326.046875 213.882812 326.324219 214.605469 326.789062 215.1875 C 327.851562 216.511719 327.820312 220.003906 330.09375 218.746094 C 332.339844 217.5 329.9375 215.140625 329.085938 213.496094 C 327.078125 209.625 326.601562 207.332031 327.414062 203.019531 C 327.472656 202.707031 327.527344 202.382812 327.535156 202.066406 C 327.617188 198.921875 325.519531 196.207031 322.929688 196.082031 C 320.152344 195.949219 318.679688 197.75 318.539062 201.539062 C 318.484375 203.039062 318.53125 204.542969 318.53125 206.042969 Z M 290.523438 230.578125 C 290.945312 231.882812 291.332031 233.207031 291.804688 234.5 C 292.1875 235.539062 292.273438 237.167969 293.925781 236.714844 C 295.34375 236.324219 294.792969 234.816406 294.578125 233.949219 C 293.203125 228.445312 291.519531 223.039062 288.089844 218.398438 C 287.175781 217.160156 286.265625 215.394531 284.371094 215.929688 C 282.339844 216.503906 282.488281 218.5 282.335938 220.207031 C 281.835938 225.902344 282.976562 231.527344 283.058594 237.199219 C 283.082031 238.867188 281.890625 242.007812 284.207031 242.019531 C 286.296875 242.03125 285.75 238.761719 285.5 237.058594 C 284.90625 232.976562 286.855469 231.261719 290.523438 230.578125 Z M 295.765625 326.789062 C 296.421875 326.449219 297.015625 326.214844 297.53125 325.859375 C 306.128906 319.992188 314.738281 314.148438 323.285156 308.207031 C 325.394531 306.742188 327.308594 304.988281 329.265625 303.3125 C 330.132812 302.570312 330.738281 301.558594 329.765625 300.539062 C 328.824219 299.554688 327.957031 300.421875 327.257812 301.03125 C 318.742188 308.480469 309.25 314.566406 299.84375 320.769531 C 298.238281 321.828125 296.8125 323.160156 295.308594 324.371094 C 294.757812 324.816406 294.496094 325.433594 294.773438 326.078125 C 294.90625 326.382812 295.390625 326.53125 295.765625 326.789062 Z M 300.980469 228.550781 C 300.699219 228.613281 300.417969 228.671875 300.132812 228.734375 C 298.433594 224.035156 296.753906 219.328125 295.015625 214.640625 C 294.703125 213.796875 294.457031 212.550781 293.109375 212.980469 C 291.722656 213.421875 292.359375 214.4375 292.609375 215.371094 C 293.933594 220.339844 295.644531 225.171875 297.84375 229.8125 C 298.570312 231.339844 299.433594 233.253906 301.515625 232.8125 C 303.613281 232.367188 303.609375 230.152344 303.632812 228.558594 C 303.722656 222.863281 304.050781 217.144531 303.300781 211.476562 C 303.109375 210.035156 303.882812 207.296875 301.933594 207.410156 C 299.457031 207.554688 300.480469 210.34375 300.527344 211.957031 C 300.699219 217.488281 301.386719 223.007812 300.980469 228.550781 Z M 263.101562 236.492188 C 261.835938 233.660156 262.683594 230.5625 262.21875 227.632812 C 262.164062 227.273438 265.742188 226.339844 267.632812 225.667969 C 267.832031 225.59375 268.003906 225.445312 268.207031 225.382812 C 269.121094 225.105469 269.84375 224.632812 269.4375 223.558594 C 269.054688 222.535156 268.1875 222.511719 267.292969 222.851562 C 265.601562 223.496094 263.960938 224.34375 262.214844 224.757812 C 260.09375 225.261719 259.699219 226.421875 259.71875 228.441406 C 259.792969 236.492188 260.972656 244.402344 262.316406 252.304688 C 262.472656 253.234375 262.308594 254.484375 263.789062 254.207031 C 265.019531 253.976562 265.019531 252.816406 264.902344 251.859375 C 264.632812 249.636719 264.367188 247.40625 263.898438 245.21875 C 263.183594 241.878906 262.65625 238.730469 266.789062 237.117188 C 267.441406 236.863281 267.925781 236.160156 268.460938 235.636719 C 268.886719 235.21875 269.007812 234.671875 268.695312 234.175781 C 268.324219 233.574219 267.757812 233.804688 267.292969 234.070312 C 265.910156 234.84375 264.546875 235.652344 263.101562 236.492188 Z M 332.074219 195.363281 C 332.226562 194.226562 331.6875 192.824219 333.25 192.335938 C 333.988281 192.105469 334.769531 192.246094 335.179688 193.0625 C 335.511719 193.71875 335.519531 195.042969 336.65625 194.324219 C 337.6875 193.675781 337.503906 192.414062 336.890625 191.449219 C 335.929688 189.929688 334.429688 189.402344 332.710938 189.703125 C 330.785156 190.046875 329.816406 191.375 329.519531 193.242188 C 328.863281 197.390625 330.265625 200.859375 333.183594 203.71875 C 335.339844 205.832031 336.535156 208.347656 337.117188 211.261719 C 337.425781 212.828125 337.0625 213.9375 335.671875 214.800781 C 334.886719 215.285156 333.167969 215.535156 333.925781 216.828125 C 334.640625 218.058594 336.203125 217.636719 337.410156 217.09375 C 339.152344 216.316406 340.0625 214.976562 339.925781 213.023438 C 339.660156 209.214844 338.753906 205.691406 336.007812 202.78125 C 334.039062 200.695312 331.988281 198.550781 332.074219 195.363281 Z M 317.242188 258.722656 C 316.863281 260.519531 317.863281 262.441406 317.90625 264.476562 C 317.9375 266.027344 317.996094 268.664062 319.453125 268.410156 C 321.511719 268.050781 320.320312 265.609375 320.1875 264.027344 C 320.09375 262.921875 319.273438 261.410156 320.355469 260.855469 C 321.519531 260.257812 322.703125 261.453125 323.675781 262.300781 C 323.914062 262.511719 324.097656 262.792969 324.351562 262.984375 C 325.429688 263.796875 326.105469 266.382812 327.699219 264.933594 C 329.320312 263.460938 326.816406 262.335938 326.160156 261.042969 C 326.070312 260.863281 325.882812 260.6875 325.699219 260.605469 C 323.804688 259.78125 324.132812 258.738281 325.070312 257.234375 C 326.339844 255.191406 325.699219 253.234375 323.757812 251.949219 C 321.941406 250.746094 319.121094 251.753906 317.949219 253.75 C 317.074219 255.234375 317.253906 256.84375 317.242188 258.722656 Z M 295.292969 274.183594 C 295.355469 272.066406 295.496094 270.03125 294.316406 268.203125 C 293.011719 266.179688 290.027344 265.589844 288.636719 267.097656 C 285.859375 270.109375 285.242188 277.394531 287.464844 280.875 C 289.296875 283.734375 292.347656 283.609375 294.039062 280.585938 C 295.167969 278.566406 295.492188 276.375 295.292969 274.183594 Z M 304.167969 251.03125 C 303.984375 249.332031 304.023438 247.570312 303.5625 245.949219 C 303.042969 244.113281 302.253906 242.476562 299.671875 242.457031 C 297.207031 242.441406 296.136719 243.761719 295.507812 245.667969 C 294.90625 247.496094 294.855469 249.414062 295.195312 251.363281 C 295.78125 254.710938 298.082031 257.546875 300.328125 257.488281 C 302.699219 257.421875 304.09375 255.078125 304.167969 251.03125 Z M 280.25 272.890625 C 278.679688 272.359375 278 271.144531 276.929688 270.496094 C 275.945312 269.898438 275.65625 267.558594 274.128906 268.765625 C 273.457031 269.300781 274.6875 270.960938 275.230469 272.046875 C 275.324219 272.234375 275.445312 272.449219 275.613281 272.558594 C 279.984375 275.367188 280.636719 279.863281 281.039062 284.476562 C 281.078125 284.902344 281.082031 285.378906 281.273438 285.734375 C 281.703125 286.535156 281.871094 287.871094 283.089844 287.644531 C 284.371094 287.40625 283.953125 286.308594 283.875 285.3125 C 283.445312 279.71875 281.894531 274.132812 283.660156 268.5 C 283.84375 267.914062 283.695312 267.21875 283.675781 266.574219 C 283.652344 265.898438 283.480469 265.21875 282.703125 265.140625 C 281.867188 265.058594 281.6875 265.78125 281.554688 266.421875 C 281.125 268.511719 280.710938 270.605469 280.25 272.890625 Z M 309.589844 235.535156 C 308.074219 235.65625 303.816406 239.351562 304.019531 240.546875 C 304.6875 244.429688 305.523438 248.285156 306.355469 252.140625 C 306.546875 253.015625 307.113281 253.78125 308.171875 253.554688 C 309.421875 253.285156 309.199219 252.171875 308.882812 251.480469 C 307.351562 248.117188 309.046875 246.433594 311.84375 245.050781 C 312.792969 244.582031 314.34375 243.765625 313.570312 242.449219 C 312.875 241.269531 311.476562 241.917969 310.425781 242.550781 C 310.148438 242.714844 309.878906 242.925781 309.578125 243 C 308.785156 243.195312 307.945312 244.722656 307.214844 243.265625 C 306.742188 242.324219 306.308594 241 307.507812 240.03125 C 308.59375 239.152344 309.746094 238.34375 310.464844 237.097656 C 311.105469 235.984375 310.675781 235.515625 309.589844 235.535156 Z M 334.160156 260.878906 C 333.636719 258.089844 333.347656 254.851562 332.382812 251.832031 C 331.421875 248.832031 331.363281 246.515625 334.339844 244.746094 C 335.035156 244.332031 335.75 243.582031 334.984375 242.605469 C 334.210938 241.621094 333.359375 242.246094 332.734375 242.722656 C 330.519531 244.40625 328.371094 246.175781 326.226562 247.941406 C 325.59375 248.460938 324.695312 248.984375 325.394531 250.027344 C 325.964844 250.875 326.808594 251.074219 327.628906 250.476562 C 329.644531 249.007812 329.6875 250.9375 329.890625 251.910156 C 330.542969 255.042969 330.914062 258.234375 331.582031 261.359375 C 331.777344 262.277344 331.9375 263.871094 333.289062 263.707031 C 334.554688 263.558594 333.960938 262.148438 334.160156 260.878906 Z M 276.714844 245.917969 C 277.828125 246.085938 278.746094 245.546875 279.347656 244.574219 C 279.933594 243.617188 281.125 242.523438 280.132812 241.433594 C 278.96875 240.15625 278.304688 241.824219 277.644531 242.402344 C 276.011719 243.835938 275.605469 242.621094 275.394531 241.402344 C 274.683594 237.292969 274.074219 233.171875 273.972656 228.980469 C 273.921875 226.84375 273.574219 224.714844 273.28125 222.59375 C 273.191406 221.941406 272.753906 221.410156 271.964844 221.472656 C 271.351562 221.519531 271.402344 222.074219 271.402344 222.453125 C 271.402344 229.640625 271.714844 236.804688 273.441406 243.820312 C 273.816406 245.34375 274.984375 246.097656 276.714844 245.917969 Z M 306.203125 330.632812 C 306.910156 330.199219 307.597656 329.890625 308.148438 329.421875 C 312.386719 325.800781 316.988281 322.675781 321.523438 319.457031 C 322.839844 318.523438 325.707031 317.683594 324.167969 315.644531 C 323.007812 314.113281 321.425781 316.652344 319.988281 317.273438 C 319.605469 317.441406 319.300781 317.78125 318.949219 318.023438 C 314.460938 321.144531 310.019531 324.324219 306.175781 328.246094 C 305.757812 328.667969 305.007812 328.996094 305.234375 329.75 C 305.332031 330.074219 305.804688 330.285156 306.203125 330.632812 Z M 102.679688 65.738281 C 103.792969 70.003906 102.335938 72.351562 98.484375 74.222656 C 91.636719 77.550781 84.816406 80.964844 77.617188 83.398438 C 66.691406 87.089844 56.707031 92.742188 46.378906 97.691406 C 44.675781 98.507812 43.566406 99.878906 43.628906 101.675781 C 43.695312 103.503906 45.539062 103.851562 46.933594 104.269531 C 57.429688 107.398438 68.035156 109.894531 79.082031 109.996094 C 81.761719 110.019531 84.023438 108.808594 86.488281 107.914062 C 87.324219 110.738281 86.472656 113.351562 86.078125 115.929688 C 84.820312 124.164062 85.261719 132.480469 85.097656 140.726562 C 84.496094 170.410156 82.125 200.046875 82.941406 229.761719 C 83.484375 249.449219 81.382812 269.125 82.34375 288.8125 C 83.085938 304.019531 81.457031 319.085938 80.25 334.191406 C 79.789062 339.964844 79.789062 345.78125 79.699219 351.578125 C 79.667969 353.757812 79.375 354.847656 76.652344 355.242188 C 70.925781 356.070312 65.304688 357.730469 59.472656 356.285156 C 51.164062 354.226562 43.078125 351.527344 35.695312 347.101562 C 32.960938 345.460938 32.796875 342.488281 32.71875 339.675781 C 32.464844 330.644531 32.820312 321.621094 32.910156 312.59375 C 33.007812 303.257812 32.300781 293.90625 32.628906 284.585938 C 33.425781 261.992188 33 239.394531 33.242188 216.804688 C 33.355469 206.277344 32.308594 195.722656 32.753906 185.21875 C 33.707031 162.640625 33.9375 140.0625 33.886719 117.46875 C 33.875 111.613281 34.457031 105.699219 36.457031 100.027344 C 37.59375 96.800781 39.308594 94.710938 42.609375 93.253906 C 61.113281 85.070312 79.5 76.617188 97.917969 68.234375 C 99.542969 67.492188 101.089844 66.574219 102.679688 65.738281 Z M 65.472656 299.039062 C 65.472656 297.679688 65.609375 296.480469 65.453125 295.316406 C 64.375 287.300781 62.023438 279.789062 55.832031 274.144531 C 52.546875 271.152344 51.113281 271.472656 48.550781 275.03125 C 47.738281 276.160156 46.839844 277.25 46.148438 278.453125 C 39.453125 290.113281 37.78125 302.074219 43.792969 314.621094 C 45.035156 317.214844 48.792969 318.382812 48.558594 321.167969 C 48.335938 323.871094 46.550781 326.503906 45.847656 329.3125 C 45.160156 332.058594 45.925781 333.078125 48.808594 333.074219 C 54.570312 333.066406 59.914062 331.203125 65.253906 329.320312 C 66.917969 328.730469 67.179688 327.675781 66.285156 326.34375 C 65.269531 324.835938 64.285156 323.203125 62.933594 322.039062 C 60.097656 319.605469 60.144531 317.191406 61.445312 313.824219 C 63.304688 309.019531 66.589844 304.492188 65.472656 299.039062 Z M 66.796875 228.320312 C 66.976562 225.78125 66.378906 223.410156 65.292969 221.160156 C 63.792969 218.050781 61.496094 215.90625 57.867188 215.867188 C 54.183594 215.824219 52.0625 218.105469 50.519531 221.191406 C 48.128906 225.96875 47.910156 231.039062 49.496094 235.894531 C 51.128906 240.878906 52.070312 245.457031 49.511719 250.453125 C 48.421875 252.582031 49.566406 254.359375 52.46875 254.289062 C 56.644531 254.183594 60.761719 253.292969 64.964844 253.480469 C 66.714844 253.558594 67.117188 252.210938 66.730469 250.789062 C 66.394531 249.570312 65.851562 248.375 65.222656 247.273438 C 64.101562 245.316406 63.898438 243.527344 64.746094 241.273438 C 66.304688 237.144531 66.285156 232.667969 66.796875 228.320312 Z M 59.636719 183.417969 C 59.636719 182.453125 59.753906 181.46875 59.617188 180.523438 C 58.890625 175.445312 58.53125 170.175781 54.082031 166.609375 C 49.351562 162.824219 45.625 164.039062 44.199219 169.976562 C 42.398438 177.460938 44.875 184.363281 48.789062 190.367188 C 51.214844 194.085938 51.496094 197.308594 50.425781 201.109375 C 50.179688 201.992188 49.847656 202.757812 50.65625 203.433594 C 51.53125 204.167969 52.40625 203.8125 53.351562 203.433594 C 56.222656 202.292969 59.113281 201.191406 62.03125 200.183594 C 65.441406 199.007812 66.023438 197.824219 63.585938 195.34375 C 60.320312 192.023438 58.574219 188.425781 59.636719 183.742188 C 59.664062 183.640625 59.640625 183.527344 59.636719 183.417969 Z M 65.597656 133.28125 C 65.480469 132.167969 65.464844 130.652344 65.132812 129.207031 C 64.320312 125.628906 61.335938 122.785156 58.25 122.507812 C 54.515625 122.175781 53.136719 124.84375 51.65625 127.566406 C 48.554688 133.273438 50.320312 138.972656 52.074219 144.371094 C 53.457031 148.628906 54.136719 152.300781 51.636719 156.3125 C 50.34375 158.390625 51.578125 159.582031 53.894531 159.359375 C 57.292969 159.03125 60.6875 158.648438 64.0625 158.15625 C 67.742188 157.621094 68.125 157.105469 66.609375 153.96875 C 64.742188 150.113281 63.582031 146.339844 64.71875 141.957031 C 65.40625 139.300781 65.308594 136.441406 65.597656 133.28125 Z M 83.78125 352.902344 C 93.542969 348.421875 102.496094 342.449219 112.023438 337.535156 C 113.089844 336.980469 113.128906 336.144531 113.0625 335.101562 C 112.457031 325.136719 111.691406 315.179688 111.347656 305.207031 C 110.332031 275.78125 110.125 246.335938 108.214844 216.9375 C 107.382812 204.09375 106.992188 191.214844 106.246094 178.355469 C 105.296875 162.054688 105.328125 145.707031 104.230469 129.402344 C 103.601562 120.082031 103.253906 110.742188 102.796875 101.410156 C 102.730469 100.078125 102.515625 99.152344 100.96875 100.289062 C 98.007812 102.460938 94.621094 103.867188 91.371094 105.515625 C 90.507812 105.949219 90.058594 106.355469 89.988281 107.378906 C 89.628906 112.835938 88.835938 118.289062 88.832031 123.742188 C 88.8125 141.824219 87.972656 159.878906 87.46875 177.941406 C 87.144531 189.445312 86.304688 200.949219 86.390625 212.445312 C 86.464844 222.765625 87.070312 233.089844 86.734375 243.414062 C 86.320312 256.101562 85.835938 268.78125 86.074219 281.480469 C 86.363281 297.074219 86.226562 312.648438 84.359375 328.1875 C 83.378906 336.347656 83.316406 344.621094 82.839844 352.835938 C 83.371094 352.878906 83.617188 352.976562 83.78125 352.902344 Z M 308.320312 219.035156 C 308.445312 221.09375 309.097656 223.003906 310.289062 224.699219 C 311.242188 226.050781 312.078125 226.140625 312.6875 224.402344 C 313.402344 222.347656 313.5625 220.207031 313.523438 218.078125 C 313.4375 213.230469 313.515625 208.328125 310.691406 203.929688 C 309.074219 208.886719 308.007812 213.867188 308.320312 219.035156 Z M 324.546875 201.015625 C 324.417969 200.027344 324.144531 198.726562 322.722656 198.800781 C 321.476562 198.863281 321.347656 200.136719 321.285156 200.964844 C 321.125 203.070312 321.234375 205.195312 321.234375 207.871094 C 323.777344 205.867188 324.902344 203.738281 324.546875 201.015625 Z M 285.101562 227.136719 C 285.125 229.003906 285.675781 229.808594 287.78125 228.890625 C 289.300781 228.226562 289.683594 227.757812 288.921875 226.164062 C 287.910156 224.042969 287.113281 221.832031 285.097656 219.640625 C 285.097656 222.46875 285.074219 224.800781 285.101562 227.136719 Z M 322.996094 254.773438 C 322.886719 254.101562 322.335938 253.535156 321.621094 253.832031 C 319.605469 254.667969 319.695312 256.402344 319.984375 258.480469 C 321.902344 257.773438 323.367188 256.964844 322.996094 254.773438 Z M 292.652344 271.347656 C 292.511719 270.117188 291.957031 268.882812 290.5625 268.925781 C 289.300781 268.960938 288.996094 270.21875 288.886719 271.296875 C 288.78125 272.355469 288.769531 273.4375 288.824219 274.503906 C 288.929688 276.550781 288.367188 279.84375 290.730469 279.863281 C 293.097656 279.886719 292.636719 276.625 292.675781 274.554688 C 292.675781 273.484375 292.773438 272.402344 292.652344 271.347656 Z M 299.449219 245.074219 C 297.152344 245.117188 297.875 248.523438 297.910156 250.566406 C 297.9375 252.316406 298.699219 254.578125 300.339844 254.453125 C 301.789062 254.339844 300.941406 251.882812 301.289062 250.53125 C 300.839844 248.515625 301.78125 245.027344 299.449219 245.074219 Z M 168.972656 143.089844 C 165.792969 148.183594 165.441406 153.742188 166.78125 159.503906 C 167.449219 162.371094 169.234375 164.15625 171.820312 165.347656 C 178.460938 168.414062 186.679688 164.523438 188.625 157.320312 C 189.46875 154.183594 189.65625 150.96875 189.316406 147.738281 C 188.601562 140.859375 185.867188 138.433594 178.574219 138.519531 C 174.441406 137.355469 171.25 139.449219 168.972656 143.089844 Z M 168.972656 143.089844 " fill-opacity="1" fill-rule="nonzero"/><path fill="#e3d8d6" d="M 285.066406 77.949219 C 278.914062 80.855469 272.773438 83.789062 266.601562 86.660156 C 251.164062 93.847656 235.695312 100.96875 220.269531 108.1875 C 213.398438 111.40625 206.617188 114.820312 199.429688 117.320312 C 198.097656 117.785156 196.757812 118.113281 195.34375 118.054688 C 185.0625 117.632812 174.847656 116.554688 164.714844 114.742188 C 164.054688 114.621094 163.5 114.394531 162.914062 113.621094 C 166.503906 111.132812 170.140625 108.738281 174.171875 107.039062 C 192.097656 99.484375 210.351562 92.765625 228.425781 85.597656 C 238.746094 81.503906 249.28125 77.804688 259.113281 72.53125 C 260.039062 72.039062 260.738281 71.941406 261.339844 72.792969 C 262.316406 74.171875 260.761719 74.191406 260.230469 74.453125 C 249.125 79.933594 238.1875 85.703125 226.34375 89.660156 C 216.851562 92.835938 208.019531 97.832031 198.535156 101.167969 C 192.785156 103.1875 187.050781 105.265625 181.746094 108.324219 C 180.40625 109.101562 178.035156 110.234375 178.804688 111.558594 C 179.902344 113.449219 181.582031 111.296875 182.816406 110.609375 C 187.511719 108 192.570312 106.273438 197.515625 104.257812 C 214.125 97.488281 230.769531 90.800781 247.28125 83.792969 C 252.878906 81.417969 258.132812 78.226562 263.5 75.328125 C 265.957031 74 267.625 76.496094 269.785156 76.214844 C 270.023438 77.558594 268.914062 77.484375 268.394531 77.742188 C 249.164062 87.332031 229.515625 95.976562 209.464844 103.722656 C 203.992188 105.835938 198.550781 108.164062 193.652344 111.492188 C 192.929688 111.984375 191.691406 112.585938 192.390625 113.710938 C 192.855469 114.464844 193.96875 114.28125 194.753906 113.820312 C 207.371094 106.398438 221.621094 102.722656 234.683594 96.285156 C 247.621094 89.90625 261.335938 85.132812 273.648438 77.429688 C 275.527344 76.253906 277.804688 77.585938 279.914062 77.339844 C 281.554688 77.144531 283.238281 77.300781 284.902344 77.300781 C 284.957031 77.515625 285.011719 77.734375 285.066406 77.949219 Z M 229.40625 12.417969 C 228.507812 12.097656 227.828125 12.113281 227.011719 12.613281 C 217.023438 18.710938 206.113281 23.023438 195.839844 28.5 C 178.4375 37.777344 160.375 45.617188 142.71875 54.316406 C 141.734375 54.800781 140.785156 55.78125 139.402344 55.175781 C 139.53125 54.875 139.566406 54.464844 139.769531 54.34375 C 167.253906 38.144531 196.464844 25.28125 225.394531 10.296875 C 223.304688 10.207031 222.914062 7.554688 220.8125 8.980469 C 214.488281 13.273438 207.378906 16.015625 200.503906 19.21875 C 192.265625 23.050781 183.84375 26.503906 175.691406 30.503906 C 164.835938 35.828125 154.128906 41.453125 143.433594 47.09375 C 138.875 49.496094 134.207031 51.5625 129.332031 53.226562 C 124.105469 55.011719 118.949219 57 114.269531 60.410156 C 116.664062 62.359375 119.386719 62.984375 122.054688 63.460938 C 127.214844 64.382812 132.167969 66.007812 137.539062 62.886719 C 153.175781 53.8125 169.835938 46.730469 186.148438 38.988281 C 197.550781 33.574219 208.464844 27.171875 220.183594 22.402344 C 226.023438 20.03125 231.71875 17.324219 237.671875 13.492188 C 234.402344 13.570312 231.847656 13.289062 229.40625 12.417969 Z M 293.289062 149.179688 C 291.707031 150.589844 289.746094 151.589844 287.902344 152.6875 C 275.742188 159.925781 263.085938 166.246094 250.304688 172.261719 C 240.707031 176.78125 231.195312 181.4375 221.882812 186.503906 C 220.726562 187.132812 219.226562 187.382812 218.675781 188.867188 C 219.484375 189.367188 220.289062 189.582031 221.179688 189.582031 C 229.570312 189.582031 237.964844 189.777344 246.34375 189.515625 C 249.027344 189.433594 251.863281 189.429688 254.460938 188.101562 C 277.9375 176.117188 300.363281 162.253906 323.367188 149.425781 C 324.738281 148.660156 326.328125 148.078125 327.699219 146.109375 C 323.542969 147.539062 319.652344 146.769531 316.167969 148.464844 C 305.289062 153.773438 295.722656 161.414062 284.578125 166.253906 C 283.507812 166.71875 282.519531 167.394531 281.527344 168.027344 C 272.761719 173.589844 262.816406 177.164062 254.761719 183.925781 C 254.597656 184.0625 254.394531 184.148438 254.203125 184.246094 C 253.589844 184.566406 252.867188 184.703125 252.402344 184.191406 C 251.789062 183.515625 252.542969 183.023438 252.953125 182.613281 C 253.710938 181.859375 254.542969 181.175781 255.367188 180.488281 C 261.695312 175.222656 269.410156 172.296875 276.316406 168.046875 C 287.40625 161.222656 299.546875 156.257812 309.597656 148.515625 C 305.808594 148.125 305.9375 148.378906 302.730469 150.023438 C 297.738281 152.582031 293.519531 156.34375 288.589844 158.925781 C 272.945312 167.128906 256.992188 174.757812 241.917969 184.035156 C 240.398438 184.96875 238.730469 185.863281 236.535156 185.554688 C 237.492188 184.109375 238.628906 183.324219 239.78125 182.578125 C 247.347656 177.695312 255.066406 173.074219 263.085938 168.976562 C 276.03125 162.363281 289.171875 156.113281 300.882812 147.917969 C 298.242188 146.308594 295.75 146.988281 293.289062 149.179688 Z M 79.238281 101.289062 C 85.148438 96.265625 92.042969 93.039062 98.78125 89.570312 C 102.714844 87.546875 103 87.167969 101.710938 82.578125 C 92.183594 88.605469 82.816406 94.933594 70.863281 97.613281 C 71.890625 95.253906 73.320312 94.453125 74.695312 93.777344 C 83.460938 89.46875 91.902344 84.601562 100.261719 79.558594 C 102.105469 78.445312 102.644531 77.457031 101.964844 75.425781 C 84.703125 85.828125 64.679688 90.109375 47.347656 101.054688 C 55.828125 103.164062 63.785156 106.550781 72.472656 106.28125 C 75.566406 106.183594 78.683594 107.726562 81.691406 106.367188 C 87.828125 103.589844 93.976562 100.839844 99.785156 97.351562 C 102.320312 95.832031 102.738281 94.113281 101.921875 91.351562 C 94.480469 95.101562 87.34375 99.351562 79.238281 101.289062 Z M 269.851562 299.800781 C 268.859375 303.980469 269.214844 308.03125 272.214844 311.253906 C 275.097656 314.355469 278.828125 316.011719 283.199219 315.46875 C 289.28125 314.710938 292.585938 310.617188 294.492188 305.296875 C 295.277344 303.101562 295.96875 302.941406 298.210938 303.40625 C 308.105469 305.46875 313.640625 303.21875 315.09375 294.496094 C 315.632812 291.25 316.722656 290.933594 319.503906 291 C 327.664062 291.1875 333.203125 285.863281 333.238281 277.949219 C 333.246094 276.464844 333.839844 276.488281 334.875 276.304688 C 340.101562 275.382812 341.988281 273.527344 342.964844 268.550781 C 343.164062 267.539062 343.210938 266.445312 342.136719 266.042969 C 341.082031 265.644531 340.726562 266.695312 340.367188 267.464844 C 340.09375 268.042969 339.804688 268.625 339.621094 269.234375 C 338.609375 272.617188 336.046875 273.707031 332.914062 273.34375 C 330.050781 273.007812 329.492188 274.046875 330.058594 276.589844 C 331.019531 280.882812 329.410156 284.140625 325.699219 286.386719 C 322.523438 288.3125 319.164062 288.1875 315.757812 287.136719 C 312 285.976562 311.707031 286.214844 312.289062 290.113281 C 312.972656 294.695312 310.660156 299.902344 307.164062 300.476562 C 303.292969 301.117188 299.242188 301.53125 295.898438 298.398438 C 294.226562 296.828125 293.003906 297.273438 292.609375 299.605469 C 292.15625 302.253906 291.585938 304.851562 290.183594 307.210938 C 287.582031 311.597656 283.578125 313.449219 279.09375 312.25 C 274.050781 310.898438 271.484375 307.492188 271.410156 302.144531 C 271.394531 301.109375 271.722656 300.007812 270.765625 298.644531 C 270.328125 299.179688 269.933594 299.453125 269.851562 299.800781 Z M 264.855469 204.015625 C 267.285156 199.554688 271.890625 198.601562 275.171875 201.851562 C 276.191406 202.859375 276.347656 205.21875 278.113281 204.84375 C 280.1875 204.40625 279.21875 202.082031 279.535156 200.664062 C 281.5 191.789062 286.621094 189.386719 294.285156 193.925781 C 295.734375 194.785156 296.933594 194.933594 297.320312 192.8125 C 297.476562 191.972656 297.667969 191.132812 297.902344 190.308594 C 299.820312 183.636719 306.929688 180.8125 312.285156 184.585938 C 317.585938 188.316406 317.585938 188.316406 318.589844 181.800781 C 319.433594 176.328125 323.910156 173.035156 327.902344 175.054688 C 329.019531 175.621094 329.882812 176.675781 330.882812 177.476562 C 331.71875 178.144531 332.632812 178.441406 333.414062 177.445312 C 334.109375 176.558594 333.519531 175.898438 332.902344 175.21875 C 328.292969 170.113281 321.8125 170.589844 317.875 176.183594 C 316.40625 178.273438 316.210938 180.75 315.292969 183.015625 C 306.273438 177.980469 299.769531 179.890625 295.425781 188.976562 C 294.6875 190.523438 294.234375 190.183594 293.105469 189.714844 C 287.714844 187.484375 282.222656 189.28125 279.109375 194.167969 C 278.070312 195.800781 277.460938 197.613281 276.878906 199.4375 C 269.730469 196.867188 267.113281 197.25 264.015625 201.289062 C 261.640625 204.382812 261.238281 208.3125 263.425781 211.390625 C 263.722656 208.507812 263.691406 206.15625 264.855469 204.015625 Z M 189.699219 329.320312 C 191.109375 329.148438 192.878906 329.019531 192.570312 327.136719 C 192.230469 325.066406 190.375 325.988281 189.140625 326.164062 C 182.421875 327.128906 175.726562 327.234375 169.023438 326.003906 C 168.101562 325.832031 166.726562 324.332031 166.195312 326.4375 C 165.773438 328.121094 167.105469 328.722656 168.355469 329.097656 C 171.984375 330.191406 175.785156 329.902344 179.734375 330.539062 C 182.90625 330.148438 186.300781 329.730469 189.699219 329.320312 Z M 171.410156 338.804688 C 170.382812 338.886719 169.003906 338.597656 168.894531 340.09375 C 168.785156 341.617188 170.25 341.558594 171.222656 341.71875 C 173.753906 342.136719 176.300781 342.445312 178.847656 342.75 C 180.949219 342.996094 183.027344 343.742188 185.1875 342.902344 C 186.015625 342.582031 186.933594 342.480469 186.789062 341.316406 C 186.671875 340.382812 185.9375 340.238281 185.132812 340.15625 C 180.878906 339.726562 176.628906 339.265625 172.246094 338.800781 C 172.050781 338.800781 171.726562 338.78125 171.410156 338.804688 Z M 127.492188 98.6875 C 125.039062 98.335938 122.144531 100.75 121.082031 104.074219 C 120.789062 104.988281 120.558594 105.921875 120.371094 106.863281 C 120.203125 107.691406 120.242188 108.773438 119.125 108.769531 C 118.132812 108.765625 117.851562 107.714844 117.566406 106.929688 C 116.867188 105.007812 116.410156 103.03125 116.464844 100.960938 C 116.492188 99.960938 116.363281 98.828125 115.160156 98.71875 C 113.738281 98.585938 113.34375 99.90625 113.367188 100.910156 C 113.4375 103.804688 113.75 106.714844 115.3125 109.257812 C 116.371094 110.988281 117.941406 112.222656 120.074219 111.867188 C 122.109375 111.523438 122.515625 109.632812 122.890625 107.960938 C 123.269531 106.289062 123.546875 104.585938 124.527344 103.144531 C 125.070312 102.347656 125.773438 101.65625 126.902344 101.734375 C 128.320312 101.839844 128.101562 103.0625 128.355469 103.902344 C 128.898438 105.703125 128.660156 107.488281 128.15625 109.289062 C 127.980469 109.917969 127.554688 110.9375 128.378906 111.335938 C 129.285156 111.773438 129.988281 110.925781 130.535156 110.3125 C 131.6875 109.023438 131.46875 107.296875 131.835938 105.980469 C 131.871094 102.007812 130.058594 99.058594 127.492188 98.6875 Z M 126.816406 308.472656 C 129.050781 307.003906 129.054688 305.8125 126.800781 304.46875 C 125.792969 303.863281 124.714844 303.375 123.71875 302.753906 C 122.835938 302.199219 122.328125 301.300781 122.550781 300.289062 C 122.800781 299.152344 123.914062 299.464844 124.710938 299.375 C 126.742188 299.15625 128.78125 299.007812 130.816406 298.820312 C 131.75 298.734375 132.5625 298.386719 132.53125 297.300781 C 132.492188 296.082031 131.464844 296.109375 130.625 296.105469 C 129.121094 296.101562 127.609375 296.113281 126.117188 296.257812 C 123.734375 296.492188 120.867188 296.019531 119.925781 299.105469 C 118.953125 302.292969 120.542969 304.460938 123.269531 305.976562 C 123.503906 306.105469 123.621094 306.441406 123.867188 306.785156 C 123.007812 307.371094 122.210938 307.882812 121.445312 308.4375 C 120.269531 309.292969 119.367188 310.289062 119.605469 311.925781 C 119.84375 313.546875 121.203125 313.875 122.378906 314.242188 C 124.824219 315 127.3125 315.644531 129.816406 316.195312 C 130.527344 316.351562 131.675781 316.726562 131.914062 315.441406 C 132.121094 314.3125 131.144531 313.988281 130.339844 313.757812 C 127.777344 313.019531 125.195312 312.363281 122.355469 311.601562 C 123.636719 309.777344 125.410156 309.398438 126.816406 308.472656 Z M 117.449219 127.054688 C 115.6875 128.753906 116.171875 131.265625 118.160156 131.503906 C 120.917969 131.839844 123.695312 132 126.46875 132.179688 C 127.417969 132.242188 128.539062 132.335938 128.78125 131.03125 C 129.066406 129.488281 127.691406 129.261719 126.761719 129.066406 C 124.851562 128.664062 122.808594 129.226562 120.429688 128.441406 C 121.953125 127.34375 123.136719 126.46875 124.339844 125.625 C 125.675781 124.6875 126.835938 123.574219 127.742188 122.226562 C 128.851562 120.570312 128.890625 118.925781 126.578125 118.699219 C 123.714844 118.417969 120.789062 118.628906 117.894531 118.738281 C 116.996094 118.773438 116.136719 119.503906 116.121094 120.355469 C 116.101562 121.535156 117.195312 121.824219 118.199219 121.851562 C 119.863281 121.894531 121.527344 121.863281 123.824219 121.863281 C 121.339844 123.859375 119.253906 125.308594 117.449219 127.054688 Z M 128.703125 140.671875 C 128.136719 137.976562 125.605469 136.042969 122.640625 135.902344 C 119.75 135.765625 117.65625 136.828125 116.726562 139.722656 C 115.464844 143.628906 116.582031 147.289062 119.835938 149.867188 C 124.113281 153.261719 126.964844 152.328125 128.394531 147.027344 C 128.699219 145.902344 128.804688 144.726562 128.964844 143.78125 C 128.871094 142.585938 128.902344 141.605469 128.703125 140.671875 Z M 123.765625 148.835938 C 122.199219 149.230469 118.8125 145.59375 119.03125 143.851562 C 119.292969 141.730469 119.273438 139.121094 122.328125 138.789062 C 124.539062 138.550781 126.132812 140.511719 126.152344 143.699219 C 125.484375 145.214844 126.648438 148.101562 123.765625 148.835938 Z M 125.445312 202.394531 C 124.667969 201.847656 123.722656 201.335938 123.277344 200.566406 C 122.519531 199.25 124.625 192.015625 125.789062 190.925781 C 126.5 190.257812 127.902344 189.734375 127.101562 188.414062 C 126.355469 187.1875 125.257812 187.792969 124.277344 188.289062 C 121.171875 189.859375 118.707031 192.203125 116.464844 194.792969 C 115.453125 195.960938 115.242188 197.386719 116.347656 198.59375 C 118.796875 201.265625 121.628906 203.488281 124.933594 205.019531 C 125.699219 205.375 126.644531 205.445312 127.027344 204.285156 C 126.878906 203.335938 126.152344 202.894531 125.445312 202.394531 Z M 127.671875 272.015625 C 125.433594 271.253906 123.371094 271.707031 122.269531 273.53125 C 120.621094 276.265625 119.683594 279.308594 120.921875 282.648438 C 122.011719 285.578125 124.460938 286.820312 127.089844 287.027344 C 129.820312 287.242188 130.550781 284.59375 131.230469 282.453125 C 131.644531 281.144531 131.796875 279.753906 132.015625 278.648438 C 131.898438 275.34375 130.785156 273.074219 127.671875 272.015625 Z M 126.648438 283.855469 C 125.078125 284.335938 122.96875 281.40625 123.125 278.925781 C 123.25 276.953125 123.453125 274.507812 126.125 274.460938 C 128.238281 274.425781 129.101562 276.222656 129.328125 278.445312 C 128.269531 280.050781 129.382812 283.027344 126.648438 283.855469 Z M 119.710938 265.058594 C 119.753906 266.351562 120.261719 267.574219 121.730469 267.398438 C 123.050781 267.242188 122.570312 266.0625 122.550781 265.082031 C 122.484375 262.214844 122.648438 259.410156 126.808594 259.867188 C 127.507812 259.945312 128.273438 259.59375 128.988281 259.371094 C 129.914062 259.082031 131.003906 258.765625 130.707031 257.488281 C 130.460938 256.449219 129.464844 256.476562 128.585938 256.535156 C 126.789062 256.65625 124.542969 257.511719 123.308594 256.742188 C 121.714844 255.75 122.53125 253.179688 122.195312 251.308594 C 122.011719 250.285156 121.8125 248.976562 120.347656 249.117188 C 118.527344 249.292969 118.921875 250.859375 119.132812 251.882812 C 119.6875 254.542969 119.730469 257.210938 119.695312 259.898438 C 119.699219 261.621094 119.660156 263.339844 119.710938 265.058594 Z M 121.445312 226.285156 C 124.453125 224.519531 126.804688 221.996094 129.0625 219.410156 C 129.867188 218.488281 129.550781 217.320312 128.449219 216.652344 C 125.398438 214.800781 122.777344 212.421875 120.121094 210.078125 C 119.398438 209.445312 118.429688 208.890625 117.554688 209.851562 C 116.65625 210.839844 117.390625 211.707031 118.085938 212.355469 C 119.898438 214.03125 121.636719 215.859375 123.6875 217.183594 C 125.777344 218.539062 125.308594 219.472656 123.789062 220.703125 C 122.375 221.851562 120.980469 223.023438 119.585938 224.195312 C 119.066406 224.628906 118.734375 225.175781 118.9375 225.882812 C 119.117188 226.507812 119.648438 226.601562 120.355469 226.617188 C 120.632812 226.535156 121.085938 226.496094 121.445312 226.285156 Z M 119.976562 169.875 C 119.84375 169.019531 119.398438 168.222656 118.261719 168.375 C 117.300781 168.503906 117.113281 169.191406 117.101562 170 C 117.050781 174.386719 117.4375 178.785156 116.761719 183.160156 C 116.660156 183.816406 117.027344 184.425781 117.769531 184.59375 C 118.546875 184.765625 118.964844 184.332031 119.15625 183.628906 C 119.351562 182.914062 119.726562 182.175781 119.667969 181.476562 C 119.46875 178.996094 120.824219 178.089844 122.984375 177.667969 C 124.542969 177.363281 126.0625 176.84375 127.566406 176.332031 C 128.027344 176.175781 128.621094 175.859375 128.558594 175.214844 C 128.480469 174.453125 127.882812 174.246094 127.199219 174.160156 C 124.894531 173.859375 122.8125 174.890625 120.550781 175.300781 C 120.363281 173.453125 120.25 171.652344 119.976562 169.875 Z M 123.933594 234.917969 C 122.335938 234.917969 120.730469 234.835938 119.144531 234.949219 C 118.269531 235.015625 117.515625 235.582031 117.519531 236.589844 C 117.519531 237.304688 118.183594 237.960938 118.738281 237.851562 C 122.007812 237.191406 125.320312 237.855469 128.585938 237.429688 C 129.40625 237.324219 129.988281 236.871094 129.972656 235.972656 C 129.957031 234.964844 129.175781 234.8125 128.40625 234.792969 C 126.917969 234.761719 125.425781 234.785156 123.933594 234.785156 C 123.933594 234.828125 123.933594 234.871094 123.933594 234.917969 Z M 118.550781 158.644531 C 117.761719 158.972656 117.242188 159.523438 117.441406 160.324219 C 117.65625 161.191406 118.421875 161.386719 119.242188 161.101562 C 120.796875 160.566406 122.433594 160.863281 124 160.617188 C 125.488281 160.386719 128.203125 161.542969 128.023438 158.980469 C 127.890625 157.109375 125.351562 158.296875 124.289062 158.03125 C 122.097656 157.988281 120.285156 157.925781 118.550781 158.644531 Z M 60.769531 324.53125 C 56.902344 321.019531 55.726562 317.292969 58.328125 312.234375 C 60 308.980469 61.867188 305.554688 62.195312 301.761719 C 62.851562 294.148438 60.871094 287.109375 57.019531 280.574219 C 56.152344 279.101562 55.179688 277.679688 53.710938 276.679688 C 52.839844 276.089844 52.28125 275.738281 51.355469 276.816406 C 42.203125 287.46875 39.863281 308.828125 50.457031 317.773438 C 51.925781 319.011719 52.238281 320.507812 51.324219 322.363281 C 50.199219 324.648438 49.316406 327.054688 48.839844 329.734375 C 53.699219 330.03125 58.136719 328.832031 62.578125 326.824219 C 61.949219 326.015625 61.460938 325.160156 60.769531 324.53125 Z M 61.574219 250.984375 C 63.445312 250.929688 63.511719 250.25 62.75 248.875 C 61.554688 246.710938 60.234375 244.574219 61.300781 241.925781 C 62.808594 238.1875 62.933594 234.179688 63.433594 230.261719 C 63.816406 227.265625 63.640625 224.28125 61.835938 221.597656 C 59.460938 218.054688 56.160156 218.023438 53.933594 221.636719 C 51.40625 225.742188 51.195312 230.269531 52.355469 234.710938 C 53.820312 240.324219 55.621094 245.804688 51.246094 251.722656 C 55.402344 251.410156 58.484375 251.074219 61.574219 250.984375 Z M 53.851562 200 C 56.4375 199.21875 59.023438 198.441406 62.652344 197.347656 C 55.347656 193.230469 56.21875 186.953125 56.410156 180.882812 C 56.421875 180.453125 56.4375 180.011719 56.351562 179.59375 C 55.582031 175.734375 55.367188 171.632812 51.980469 168.851562 C 49.433594 166.757812 48.09375 167.125 47.222656 170.285156 C 45.902344 175.066406 47.15625 179.585938 48.78125 184.078125 C 50.6875 189.339844 55.226562 193.765625 53.886719 200.0625 Z M 62.230469 155.96875 C 63.792969 155.839844 64.320312 155.253906 63.457031 153.746094 C 61.480469 150.28125 60.964844 146.648438 61.492188 142.628906 C 62.03125 138.503906 62.773438 134.328125 62.21875 130.113281 C 61.902344 127.707031 60.484375 126.171875 58.207031 125.644531 C 55.933594 125.117188 55.378906 127.128906 54.582031 128.582031 C 51.710938 133.832031 53.445312 139.132812 54.953125 144.1875 C 56.21875 148.429688 57.308594 152.363281 54.042969 156.695312 C 57.355469 156.398438 59.789062 156.164062 62.230469 155.96875 Z M 62.230469 155.96875 " fill-opacity="1" fill-rule="nonzero"/></svg>